<?xml version="1.0" encoding="UTF-8" standalone="no" ?>
<!DOCTYPE svg PUBLIC "-//W3C//DTD SVG 1.1//EN" "http://www.w3.org/Graphics/SVG/1.1/DTD/svg11.dtd">
<svg xmlns="http://www.w3.org/2000/svg" xmlns:xlink="http://www.w3.org/1999/xlink" version="1.1" width="1080" height="1080" viewBox="0 0 1080 1080" xml:space="preserve">
<desc>Created with Fabric.js 5.2.4</desc>
<defs>
</defs>
<rect x="0" y="0" width="100%" height="100%" fill="transparent"></rect>
<g transform="matrix(0 0 0 0 0 0)" id="d62be3a8-560d-4828-865c-a91591b2ab2a"  >
</g>
<g transform="matrix(1 0 0 1 540 540)" id="836f0a78-09d1-46e9-b331-876a1c04c567"  >
<rect style="stroke: none; stroke-width: 1; stroke-dasharray: none; stroke-linecap: butt; stroke-dashoffset: 0; stroke-linejoin: miter; stroke-miterlimit: 4; fill: rgb(255,255,255); fill-rule: nonzero; opacity: 1; visibility: hidden;" vector-effect="non-scaling-stroke"  x="-540" y="-540" rx="0" ry="0" width="1080" height="1080" />
</g>
<g transform="matrix(4.17 0 0 4.17 540 540)"  >
<g style="" vector-effect="non-scaling-stroke"   >
		<g transform="matrix(0.25 0 0 0.25 -49.88 -51.38)"  >
<path style="stroke: none; stroke-width: 1; stroke-dasharray: none; stroke-linecap: butt; stroke-dashoffset: 0; stroke-linejoin: miter; stroke-miterlimit: 4; fill: rgb(236,139,100); fill-rule: nonzero; opacity: 1;" vector-effect="non-scaling-stroke"  transform=" translate(177, -296)" d="M 0 0 L 20 0 L 35 3 L 46 8 L 58 15 L 68 24 L 73 29 L 81 40 L 89 56 L 93 70 L 93 91 L 87 112 L 79 128 L 72 137 L 64 145 L 48 155 L 36 161 L 29 163 L 29 180 L 28 196 L 25 208 L 19 217 L 10 224 L -45 225 L -93 229 L -117 237 L -134 246 L -148 256 L -163 270 L -173 282 L -182 296 L -191 313 L -195 326 L -199 344 L -201 359 L -202 374 L -202 502 L -204 511 L -213 523 L -218 526 L -222 527 L -272 528 L -281 548 L -288 559 L -297 569 L -302 574 L -312 582 L -331 590 L -339 592 L -365 592 L -386 586 L -400 579 L -413 568 L -421 559 L -429 545 L -435 526 L -436 509 L -435 493 L -429 475 L -421 461 L -410 449 L -397 439 L -382 432 L -367 428 L -344 428 L -328 431 L -316 436 L -305 443 L -293 454 L -286 462 L -278 476 L -272 491 L -271 492 L -235 495 L -235 350 L -247 345 L -278 334 L -287 329 L -294 329 L -308 345 L -317 353 L -327 359 L -347 367 L -354 368 L -377 368 L -391 364 L -412 354 L -423 345 L -431 337 L -439 323 L -444 308 L -447 295 L -447 274 L -442 256 L -437 244 L -427 231 L -419 222 L -405 213 L -390 206 L -379 203 L -353 203 L -341 206 L -329 211 L -318 218 L -306 229 L -298 237 L -290 251 L -284 269 L -283 274 L -282 290 L -280 295 L -276 298 L -252 307 L -235 313 L -229 316 L -227 316 L -226 311 L -222 301 L -209 275 L -194 253 L -172 231 L -164 225 L -163 220 L -170 206 L -179 193 L -181 188 L -194 189 L -200 191 L -208 192 L -224 192 L -245 187 L -265 177 L -276 169 L -287 154 L -293 142 L -299 123 L -299 97 L -296 89 L -294 80 L -286 64 L -276 51 L -268 44 L -255 36 L -243 31 L -231 28 L -219 27 L -209 27 L -194 29 L -182 34 L -166 44 L -156 53 L -147 67 L -140 81 L -136 95 L -135 103 L -135 114 L -137 128 L -141 140 L -146 150 L -154 162 L -155 168 L -145 184 L -135 198 L -133 203 L -124 203 L -105 198 L -101 196 L -76 192 L -8 191 L -8 164 L -14 162 L -33 152 L -44 145 L -54 136 L -62 123 L -68 109 L -71 99 L -72 91 L -72 78 L -70 62 L -62 41 L -54 31 L -47 23 L -39 16 L -24 7 L -13 3 z M 3 34 L -8 38 L -17 44 L -24 51 L -32 65 L -35 75 L -35 93 L -32 103 L -25 114 L -17 122 L -9 127 L 6 132 L 18 133 L 30 130 L 42 125 L 51 118 L 58 108 L 62 98 L 64 89 L 64 73 L 59 59 L 53 51 L 45 43 L 35 36 L 23 34 z M -223 60 L -233 63 L -246 71 L -255 81 L -259 89 L -263 106 L -262 119 L -257 135 L -248 145 L -241 151 L -231 156 L -217 159 L -201 159 L -190 155 L -181 149 L -173 141 L -167 131 L -163 114 L -163 103 L -165 93 L -169 84 L -175 75 L -182 69 L -196 62 L -203 60 z M -371 236 L -381 240 L -392 247 L -399 254 L -407 267 L -410 275 L -411 281 L -411 295 L -406 308 L -398 319 L -391 326 L -374 334 L -367 336 L -351 336 L -341 333 L -326 324 L -319 316 L -313 306 L -311 300 L -311 274 L -315 264 L -321 255 L -330 245 L -342 237 L -345 236 z M -359 460 L -369 463 L -379 469 L -385 474 L -385 476 L -387 476 L -393 485 L -398 498 L -399 503 L -399 521 L -394 533 L -388 542 L -381 549 L -365 557 L -352 560 L -339 559 L -327 555 L -315 547 L -308 539 L -301 525 L -299 517 L -299 503 L -302 491 L -309 480 L -317 471 L -328 464 L -336 461 L -340 460 z" stroke-linecap="round" />
</g>
		<g transform="matrix(0.25 0 0 0.25 -38 70.13)"  >
<path style="stroke: none; stroke-width: 1; stroke-dasharray: none; stroke-linecap: butt; stroke-dashoffset: 0; stroke-linejoin: miter; stroke-miterlimit: 4; fill: rgb(140,180,20); fill-rule: nonzero; opacity: 1;" vector-effect="non-scaling-stroke"  transform=" translate(17.5, -221)" d="M 0 0 L 172 0 L 195 1 L 205 4 L 215 13 L 219 24 L 219 122 L 218 148 L 216 170 L 211 192 L 203 214 L 196 228 L 183 246 L 172 259 L 158 273 L 146 283 L 131 292 L 113 302 L 89 310 L 73 314 L 65 315 L 21 316 L -27 316 L -30 344 L -34 362 L -39 378 L -45 390 L -59 407 L -62 411 L -64 411 L -64 413 L -76 422 L -94 432 L -107 437 L -131 442 L -148 442 L -171 438 L -189 432 L -204 423 L -218 412 L -228 403 L -241 384 L -247 369 L -252 352 L -254 341 L -254 317 L -250 300 L -244 284 L -236 269 L -226 255 L -218 247 L -205 237 L -190 228 L -179 223 L -163 219 L -153 218 L -120 217 L -119 17 L -115 11 L -110 7 L -97 1 z M -86 33 L -87 34 L -87 61 L -86 68 L -85 69 L -73 70 L -45 70 L -17 71 L -11 72 L -8 82 L -9 92 L -13 98 L -17 99 L -87 100 L -87 134 L -86 135 L -57 136 L -50 139 L -46 144 L -44 150 L -44 156 L -48 161 L -58 164 L -87 166 L -87 218 L -86 219 L -66 219 L -46 215 L -31 209 L -13 199 L 4 185 L 9 180 L 19 167 L 28 151 L 33 138 L 39 113 L 40 104 L 40 34 L 38 33 z M 72 33 L 71 35 L 71 54 L 70 98 L 68 129 L 66 141 L 58 161 L 47 182 L 33 200 L 23 210 L 6 223 L -10 233 L -28 241 L -47 246 L -63 249 L -80 250 L -149 251 L -168 255 L -181 260 L -190 267 L -202 278 L -209 289 L -216 301 L -220 313 L -222 325 L -222 336 L -218 353 L -211 369 L -202 382 L -194 390 L -178 400 L -165 406 L -145 409 L -132 409 L -116 405 L -101 397 L -90 389 L -82 381 L -82 379 L -78 377 L -74 373 L -67 355 L -63 340 L -59 310 L -57 302 L -51 293 L -41 287 L -29 284 L 29 283 L 64 282 L 81 278 L 106 268 L 118 262 L 135 250 L 143 242 L 150 234 L 156 227 L 163 216 L 167 211 L 175 193 L 184 166 L 185 160 L 186 127 L 186 35 L 185 33 z" stroke-linecap="round" />
</g>
		<g transform="matrix(0.25 0 0 0.25 65 -35.5)"  >
<path style="stroke: none; stroke-width: 1; stroke-dasharray: none; stroke-linecap: butt; stroke-dashoffset: 0; stroke-linejoin: miter; stroke-miterlimit: 4; fill: rgb(213,171,15); fill-rule: nonzero; opacity: 1;" vector-effect="non-scaling-stroke"  transform=" translate(-190.5, -168.5)" d="M 0 0 L 123 0 L 145 1 L 164 4 L 199 12 L 214 17 L 243 30 L 255 36 L 272 46 L 288 58 L 300 69 L 320 87 L 333 100 L 344 114 L 360 138 L 370 156 L 380 177 L 392 213 L 397 236 L 400 257 L 400 315 L 395 325 L 389 332 L 381 336 L 45 337 L 1 336 L -8 332 L -14 327 L -18 319 L -19 314 L -19 19 L -15 11 L -10 5 L -4 1 z M 15 34 L 14 35 L 14 302 L 15 303 L 367 303 L 367 285 L 365 243 L 363 233 L 355 205 L 347 182 L 335 159 L 319 135 L 312 126 L 301 113 L 294 105 L 286 98 L 275 89 L 259 78 L 245 69 L 229 61 L 204 49 L 187 43 L 156 37 L 126 34 z" stroke-linecap="round" />
</g>
		<g transform="matrix(0.25 0 0 0.25 64.5 34.76)"  >
<path style="stroke: none; stroke-width: 1; stroke-dasharray: none; stroke-linecap: butt; stroke-dashoffset: 0; stroke-linejoin: miter; stroke-miterlimit: 4; fill: rgb(214,170,16); fill-rule: nonzero; opacity: 1;" vector-effect="non-scaling-stroke"  transform=" translate(-105.5, -79.5)" d="M 0 0 L 89 0 L 214 1 L 225 5 L 235 12 L 241 21 L 242 25 L 242 40 L 240 53 L 233 77 L 228 88 L 223 97 L 215 108 L 207 118 L 191 132 L 175 142 L 158 150 L 132 158 L 122 159 L 0 159 L -10 157 L -20 152 L -26 145 L -30 136 L -31 26 L -28 16 L -24 10 L -14 4 z M 4 33 L 2 35 L 2 125 L 3 126 L 35 127 L 81 127 L 119 126 L 140 121 L 152 116 L 167 108 L 179 97 L 187 90 L 195 77 L 201 69 L 207 44 L 207 35 L 201 34 z" stroke-linecap="round" />
</g>
		<g transform="matrix(0.25 0 0 0.25 -19.51 -33.88)"  >
<path style="stroke: none; stroke-width: 1; stroke-dasharray: none; stroke-linecap: butt; stroke-dashoffset: 0; stroke-linejoin: miter; stroke-miterlimit: 4; fill: rgb(186,97,109); fill-rule: nonzero; opacity: 1;" vector-effect="non-scaling-stroke"  transform=" translate(-17.5, -98)" d="M 0 0 L 32 0 L 46 3 L 66 11 L 79 20 L 92 32 L 102 46 L 111 67 L 116 83 L 117 87 L 117 109 L 112 128 L 106 144 L 96 160 L 89 168 L 81 175 L 71 182 L 54 191 L 43 195 L 36 196 L -1 196 L -13 193 L -34 183 L -45 176 L -62 159 L -70 146 L -78 129 L -81 116 L -82 104 L -81 85 L -79 78 L -77 67 L -72 55 L -63 40 L -54 30 L -43 19 L -28 10 L -17 5 z M 12 30 L -6 34 L -16 38 L -26 45 L -39 58 L -46 69 L -50 80 L -50 113 L -44 131 L -35 144 L -26 152 L -13 160 L -3 164 L 8 166 L 31 165 L 47 161 L 64 149 L 71 142 L 80 127 L 85 116 L 86 102 L 86 87 L 83 78 L 75 62 L 69 53 L 65 48 L 56 42 L 36 32 L 17 30 z" stroke-linecap="round" />
</g>
		<g transform="matrix(0.25 0 0 0.25 -19.63 -33.63)"  >
<path style="stroke: none; stroke-width: 1; stroke-dasharray: none; stroke-linecap: butt; stroke-dashoffset: 0; stroke-linejoin: miter; stroke-miterlimit: 4; fill: rgb(186,96,108); fill-rule: nonzero; opacity: 1;" vector-effect="non-scaling-stroke"  transform=" translate(-9, -33)" d="M 0 0 L 19 0 L 30 3 L 36 8 L 42 20 L 44 29 L 43 40 L 38 52 L 30 61 L 23 65 L 18 66 L 0 66 L -8 63 L -18 54 L -24 43 L -26 38 L -26 27 L -21 14 L -12 5 L -4 1 z" stroke-linecap="round" />
</g>
		<g transform="matrix(0.25 0 0 0.25 86.13 -31.63)"  >
<path style="stroke: none; stroke-width: 1; stroke-dasharray: none; stroke-linecap: butt; stroke-dashoffset: 0; stroke-linejoin: miter; stroke-miterlimit: 4; fill: rgb(212,173,21); fill-rule: nonzero; opacity: 1;" vector-effect="non-scaling-stroke"  transform=" translate(-22, -43)" d="M 0 0 L 9 0 L 15 4 L 25 14 L 37 30 L 50 52 L 55 61 L 56 65 L 56 73 L 49 82 L 45 86 L 36 85 L 27 79 L 20 70 L 11 54 L 1 39 L -7 28 L -12 23 L -12 14 L -6 4 z" stroke-linecap="round" />
</g>
		<g transform="matrix(0.25 0 0 0.25 66.13 -9)"  >
<path style="stroke: none; stroke-width: 1; stroke-dasharray: none; stroke-linecap: butt; stroke-dashoffset: 0; stroke-linejoin: miter; stroke-miterlimit: 4; fill: rgb(160,192,60); fill-rule: nonzero; opacity: 1;" vector-effect="non-scaling-stroke"  transform=" translate(170, -31.5)" d="M 0 0 L 1 0 L 4 29 L 5 61 L 4 62 L -85 63 L -256 63 L -345 62 L -344 60 L -262 59 L -45 59 L 2 60 L 0 21 z" stroke-linecap="round" />
</g>
		<g transform="matrix(0.25 0 0 0.25 52.51 6.13)"  >
<path style="stroke: none; stroke-width: 1; stroke-dasharray: none; stroke-linecap: butt; stroke-dashoffset: 0; stroke-linejoin: miter; stroke-miterlimit: 4; fill: rgb(188,189,94); fill-rule: nonzero; opacity: 1;" vector-effect="non-scaling-stroke"  transform=" translate(-144.5, -2)" d="M 0 0 L 289 0 L 289 1 L 260 1 L 260 3 L 81 4 L 49 4 L 5 3 L 0 1 z" stroke-linecap="round" />
</g>
		<g transform="matrix(0.25 0 0 0.25 64.25 15.38)"  >
<path style="stroke: none; stroke-width: 1; stroke-dasharray: none; stroke-linecap: butt; stroke-dashoffset: 0; stroke-linejoin: miter; stroke-miterlimit: 4; fill: rgb(153,188,48); fill-rule: nonzero; opacity: 1;" vector-effect="non-scaling-stroke"  transform=" translate(-104.5, -2)" d="M 0 0 L 89 0 L 214 1 L 220 3 L 217 4 L -11 4 L -8 2 z" stroke-linecap="round" />
</g>
		<g transform="matrix(0.25 0 0 0.25 64.25 34.5)"  >
<path style="stroke: none; stroke-width: 1; stroke-dasharray: none; stroke-linecap: butt; stroke-dashoffset: 0; stroke-linejoin: miter; stroke-miterlimit: 4; fill: rgb(183,207,108); fill-rule: nonzero; opacity: 1;" vector-effect="non-scaling-stroke"  transform=" translate(-102.5, -46.5)" d="M 0 0 L 200 0 L 200 2 L 206 2 L 206 9 L 205 9 L 205 3 L 175 3 L 2 2 L 1 3 L 0 93 L -1 93 L -1 1 z" stroke-linecap="round" />
</g>
		<g transform="matrix(0.25 0 0 0.25 36.01 -74.88)"  >
<path style="stroke: none; stroke-width: 1; stroke-dasharray: none; stroke-linecap: butt; stroke-dashoffset: 0; stroke-linejoin: miter; stroke-miterlimit: 4; fill: rgb(183,208,109); fill-rule: nonzero; opacity: 1;" vector-effect="non-scaling-stroke"  transform=" translate(-74.5, -11)" d="M 0 0 L 123 0 L 145 1 L 164 4 L 168 6 L 157 5 L 150 4 L -2 4 L -9 7 L -11 8 L -10 5 L -4 1 z M -12 8 M -13 9 M -14 10 L -13 12 L -18 22 L -19 19 L -15 11 z" stroke-linecap="round" />
</g>
		<g transform="matrix(0.25 0 0 0.25 30.88 35.13)"  >
<path style="stroke: none; stroke-width: 1; stroke-dasharray: none; stroke-linecap: butt; stroke-dashoffset: 0; stroke-linejoin: miter; stroke-miterlimit: 4; fill: rgb(145,183,30); fill-rule: nonzero; opacity: 1;" vector-effect="non-scaling-stroke"  transform=" translate(0, -58)" d="M 0 0 L 1 0 L 2 116 L 0 116 L -1 113 L -2 3 z" stroke-linecap="round" />
</g>
		<g transform="matrix(0.25 0 0 0.25 108.63 -9.13)"  >
<path style="stroke: none; stroke-width: 1; stroke-dasharray: none; stroke-linecap: butt; stroke-dashoffset: 0; stroke-linejoin: miter; stroke-miterlimit: 4; fill: rgb(159,192,59); fill-rule: nonzero; opacity: 1;" vector-effect="non-scaling-stroke"  transform=" translate(0, -31)" d="M 0 0 L 1 0 L 4 29 L 5 61 L 0 62 L -5 61 L -5 60 L 2 60 L 0 21 z" stroke-linecap="round" />
</g>
		<g transform="matrix(0.25 0 0 0.25 79.75 40.13)"  >
<path style="stroke: none; stroke-width: 1; stroke-dasharray: none; stroke-linecap: butt; stroke-dashoffset: 0; stroke-linejoin: miter; stroke-miterlimit: 4; fill: rgb(181,189,85); fill-rule: nonzero; opacity: 1;" vector-effect="non-scaling-stroke"  transform=" translate(26.5, -22)" d="M 0 0 L 3 1 L 1 1 L -1 6 L -3 7 L -1 1 z M -4 7 L -4 10 L -10 17 L -17 23 L -22 28 L -26 29 L -9 12 z M -28 29 L -26 29 L -27 32 L -29 32 L -32 35 L -45 41 L -49 41 L -49 43 L -56 44 L -56 42 L -43 37 z" stroke-linecap="round" />
</g>
		<g transform="matrix(0.25 0 0 0.25 32.63 -1.5)"  >
<path style="stroke: none; stroke-width: 1; stroke-dasharray: none; stroke-linecap: butt; stroke-dashoffset: 0; stroke-linejoin: miter; stroke-miterlimit: 4; fill: rgb(232,142,97); fill-rule: nonzero; opacity: 1;" vector-effect="non-scaling-stroke"  transform=" translate(-48, -1.5)" d="M 0 0 L 8 0 L 8 1 L 96 2 L 96 3 L 1 3 z" stroke-linecap="round" />
</g>
		<g transform="matrix(0.25 0 0 0.25 -14.25 -49.26)"  >
<path style="stroke: none; stroke-width: 1; stroke-dasharray: none; stroke-linecap: butt; stroke-dashoffset: 0; stroke-linejoin: miter; stroke-miterlimit: 4; fill: rgb(217,158,96); fill-rule: nonzero; opacity: 1;" vector-effect="non-scaling-stroke"  transform=" translate(-18.5, -7.5)" d="M 0 0 L 9 0 L 19 1 L 29 7 L 38 12 L 40 15 L 34 13 L 16 4 L -3 2 z" stroke-linecap="round" />
</g>
		<g transform="matrix(0.25 0 0 0.25 116.88 -12.13)"  >
<path style="stroke: none; stroke-width: 1; stroke-dasharray: none; stroke-linecap: butt; stroke-dashoffset: 0; stroke-linejoin: miter; stroke-miterlimit: 4; fill: rgb(199,198,118); fill-rule: nonzero; opacity: 1;" vector-effect="non-scaling-stroke"  transform=" translate(-1, -19)" d="M 0 0 L 1 0 L 3 14 L 3 38 L 1 38 L -1 1 z" stroke-linecap="round" />
</g>
		<g transform="matrix(0.25 0 0 0.25 113.25 -29.76)"  >
<path style="stroke: none; stroke-width: 1; stroke-dasharray: none; stroke-linecap: butt; stroke-dashoffset: 0; stroke-linejoin: miter; stroke-miterlimit: 4; fill: rgb(183,205,105); fill-rule: nonzero; opacity: 1;" vector-effect="non-scaling-stroke"  transform=" translate(-7.5, -21.5)" d="M 0 0 L 2 3 L 8 18 L 15 40 L 15 43 L 13 43 L 3 11 L 0 4 z" stroke-linecap="round" />
</g>
		<g transform="matrix(0.25 0 0 0.25 98.13 24.75)"  >
<path style="stroke: none; stroke-width: 1; stroke-dasharray: none; stroke-linecap: butt; stroke-dashoffset: 0; stroke-linejoin: miter; stroke-miterlimit: 4; fill: rgb(187,210,116); fill-rule: nonzero; opacity: 1;" vector-effect="non-scaling-stroke"  transform=" translate(0, -17.5)" d="M 0 0 L 2 3 L 2 18 L 0 31 L -2 35 L -2 26 L -1 20 z" stroke-linecap="round" />
</g>
		<g transform="matrix(0.25 0 0 0.25 86.5 24)"  >
<path style="stroke: none; stroke-width: 1; stroke-dasharray: none; stroke-linecap: butt; stroke-dashoffset: 0; stroke-linejoin: miter; stroke-miterlimit: 4; fill: rgb(175,202,92); fill-rule: nonzero; opacity: 1;" vector-effect="non-scaling-stroke"  transform=" translate(-14.5, -4.5)" d="M 0 0 L 23 0 L 23 2 L 29 2 L 29 9 L 28 9 L 28 3 L 9 3 L 0 2 z" stroke-linecap="round" />
</g>
		<g transform="matrix(0.25 0 0 0.25 -112.75 -5.13)"  >
<path style="stroke: none; stroke-width: 1; stroke-dasharray: none; stroke-linecap: butt; stroke-dashoffset: 0; stroke-linejoin: miter; stroke-miterlimit: 4; fill: rgb(196,216,134); fill-rule: nonzero; opacity: 1;" vector-effect="non-scaling-stroke"  transform=" translate(5.5, -17)" d="M 0 0 L 1 3 L -3 11 L -11 34 L -12 34 L -11 26 L -6 11 z" stroke-linecap="round" />
</g>
		<g transform="matrix(0.25 0 0 0.25 84.25 37.88)"  >
<path style="stroke: none; stroke-width: 1; stroke-dasharray: none; stroke-linecap: butt; stroke-dashoffset: 0; stroke-linejoin: miter; stroke-miterlimit: 4; fill: rgb(180,201,96); fill-rule: nonzero; opacity: 1;" vector-effect="non-scaling-stroke"  transform=" translate(8.5, -13)" d="M 0 0 L 3 1 L 1 1 L -1 6 L -3 7 L -1 1 z M -4 7 L -4 10 L -10 17 L -17 23 L -20 26 L -18 21 L -9 12 z" stroke-linecap="round" />
</g>
		<g transform="matrix(0.25 0 0 0.25 89.5 28)"  >
<path style="stroke: none; stroke-width: 1; stroke-dasharray: none; stroke-linecap: butt; stroke-dashoffset: 0; stroke-linejoin: miter; stroke-miterlimit: 4; fill: rgb(163,194,66); fill-rule: nonzero; opacity: 1;" vector-effect="non-scaling-stroke"  transform=" translate(2.5, -11.5)" d="M 0 0 L 1 4 L -3 21 L -6 23 L -2 3 z" stroke-linecap="round" />
</g>
		<g transform="matrix(0.25 0 0 0.25 108.63 -3.75)"  >
<path style="stroke: none; stroke-width: 1; stroke-dasharray: none; stroke-linecap: butt; stroke-dashoffset: 0; stroke-linejoin: miter; stroke-miterlimit: 4; fill: rgb(182,207,107); fill-rule: nonzero; opacity: 1;" vector-effect="non-scaling-stroke"  transform=" translate(2, -6.5)" d="M 0 0 L 1 2 L 3 2 L 3 12 L -2 13 L -7 12 L -7 11 L 0 11 z" stroke-linecap="round" />
</g>
		<g transform="matrix(0.25 0 0 0.25 86 -25)"  >
<path style="stroke: none; stroke-width: 1; stroke-dasharray: none; stroke-linecap: butt; stroke-dashoffset: 0; stroke-linejoin: miter; stroke-miterlimit: 4; fill: rgb(192,213,126); fill-rule: nonzero; opacity: 1;" vector-effect="non-scaling-stroke"  transform=" translate(-5.5, -8.5)" d="M 0 0 L 4 2 L 11 14 L 10 17 L 4 9 L 0 2 z" stroke-linecap="round" />
</g>
		<g transform="matrix(0.25 0 0 0.25 90.25 -21.63)"  >
<path style="stroke: none; stroke-width: 1; stroke-dasharray: none; stroke-linecap: butt; stroke-dashoffset: 0; stroke-linejoin: miter; stroke-miterlimit: 4; fill: rgb(198,217,138); fill-rule: nonzero; opacity: 1;" vector-effect="non-scaling-stroke"  transform=" translate(-8.5, -3)" d="M 0 0 L 6 2 L 17 3 L 17 5 L 15 6 L 6 5 L 0 1 z" stroke-linecap="round" />
</g>
		<g transform="matrix(0.25 0 0 0.25 33.25 17.38)"  >
<path style="stroke: none; stroke-width: 1; stroke-dasharray: none; stroke-linecap: butt; stroke-dashoffset: 0; stroke-linejoin: miter; stroke-miterlimit: 4; fill: rgb(162,194,66); fill-rule: nonzero; opacity: 1;" vector-effect="non-scaling-stroke"  transform=" translate(5.5, -6)" d="M 0 0 L 2 1 L -7 8 L -11 12 L -13 11 L -10 6 z" stroke-linecap="round" />
</g>
		<g transform="matrix(0.25 0 0 0.25 5.5 -95.13)"  >
<path style="stroke: none; stroke-width: 1; stroke-dasharray: none; stroke-linecap: butt; stroke-dashoffset: 0; stroke-linejoin: miter; stroke-miterlimit: 4; fill: rgb(219,231,182); fill-rule: nonzero; opacity: 1;" vector-effect="non-scaling-stroke"  transform=" translate(8.5, -7)" d="M 0 0 L 0 3 L -3 7 L -5 7 L -6 10 L -14 14 L -17 13 L -8 8 L -3 4 z" stroke-linecap="round" />
</g>
		<g transform="matrix(0.25 0 0 0.25 -57.88 3.13)"  >
<path style="stroke: none; stroke-width: 1; stroke-dasharray: none; stroke-linecap: butt; stroke-dashoffset: 0; stroke-linejoin: miter; stroke-miterlimit: 4; fill: rgb(254,254,254); fill-rule: nonzero; opacity: 1;" vector-effect="non-scaling-stroke"  transform=" translate(5, -9)" d="M 0 0 L 1 4 L -6 14 L -9 18 L -11 17 L -3 6 z" stroke-linecap="round" />
</g>
		<g transform="matrix(0.25 0 0 0.25 114.38 -26.5)"  >
<path style="stroke: none; stroke-width: 1; stroke-dasharray: none; stroke-linecap: butt; stroke-dashoffset: 0; stroke-linejoin: miter; stroke-miterlimit: 4; fill: rgb(184,201,102); fill-rule: nonzero; opacity: 1;" vector-effect="non-scaling-stroke"  transform=" translate(-3, -8.5)" d="M 0 0 L 2 1 L 6 14 L 6 17 L 4 17 L 0 5 z" stroke-linecap="round" />
</g>
		<g transform="matrix(0.25 0 0 0.25 -1.13 -71.63)"  >
<path style="stroke: none; stroke-width: 1; stroke-dasharray: none; stroke-linecap: butt; stroke-dashoffset: 0; stroke-linejoin: miter; stroke-miterlimit: 4; fill: rgb(254,254,254); fill-rule: nonzero; opacity: 1;" vector-effect="non-scaling-stroke"  transform=" translate(5, -7)" d="M 0 0 L 1 2 L -6 11 L -11 14 L -10 11 L -5 6 z" stroke-linecap="round" />
</g>
		<g transform="matrix(0.25 0 0 0.25 78.25 -37.51)"  >
<path style="stroke: none; stroke-width: 1; stroke-dasharray: none; stroke-linecap: butt; stroke-dashoffset: 0; stroke-linejoin: miter; stroke-miterlimit: 4; fill: rgb(254,254,254); fill-rule: nonzero; opacity: 1;" vector-effect="non-scaling-stroke"  transform=" translate(-1.5, -7.5)" d="M 0 0 L 1 3 L 2 9 L 4 15 L 1 14 L -1 11 L -1 2 z" stroke-linecap="round" />
</g>
		<g transform="matrix(0.25 0 0 0.25 -46.13 -69.88)"  >
<path style="stroke: none; stroke-width: 1; stroke-dasharray: none; stroke-linecap: butt; stroke-dashoffset: 0; stroke-linejoin: miter; stroke-miterlimit: 4; fill: rgb(254,254,254); fill-rule: nonzero; opacity: 1;" vector-effect="non-scaling-stroke"  transform=" translate(-1, -5)" d="M 0 0 L 4 4 L 4 8 L -2 10 L 0 7 z" stroke-linecap="round" />
</g>
</g>
</g>
</svg>